<?xml version="1.0" standalone="no"?><!DOCTYPE svg PUBLIC "-//W3C//DTD SVG 1.1//EN" "http://www.w3.org/Graphics/SVG/1.1/DTD/svg11.dtd"><svg t="1765096913598" class="icon" viewBox="0 0 1024 1024" version="1.1" xmlns="http://www.w3.org/2000/svg" p-id="8796" xmlns:xlink="http://www.w3.org/1999/xlink" width="200" height="200"><path d="M880 112H144c-17.7 0-32 14.3-32 32v736c0 17.7 14.3 32 32 32h736c17.7 0 32-14.3 32-32V144c0-17.7-14.3-32-32-32z m-32 736H663.9V602.2h104l15.6-120.7H663.9v-77.1c0-35 9.7-58.8 59.8-58.8h63.9v-108c-11.1-1.5-49-4.8-93.2-4.8-92.2 0-155.3 56.3-155.3 159.6v89H434.9v120.7h104.3V848H176V176h672v672z" p-id="8797"  fill="currentColor"></path></svg>