<?xml version="1.0" standalone="no"?><!DOCTYPE svg PUBLIC "-//W3C//DTD SVG 1.1//EN" "http://www.w3.org/Graphics/SVG/1.1/DTD/svg11.dtd"><svg t="1765091390044" class="icon" viewBox="0 0 1024 1024" version="1.1" xmlns="http://www.w3.org/2000/svg" p-id="8504" xmlns:xlink="http://www.w3.org/1999/xlink" width="200" height="200"><path d="M765.123048 121.904762a73.142857 73.142857 0 0 1 65.414095 40.423619l63.829333 127.634286A73.142857 73.142857 0 0 1 902.095238 322.681905V828.952381a73.142857 73.142857 0 0 1-73.142857 73.142857H195.047619a73.142857 73.142857 0 0 1-73.142857-73.142857V328.630857a73.142857 73.142857 0 0 1 7.289905-31.817143l64.536381-133.607619A73.142857 73.142857 0 0 1 259.584 121.904762h505.539048zM828.952381 365.714286H195.047619v463.238095h633.904762V365.714286z m-365.714286 73.142857v73.142857h-195.047619v-73.142857h195.047619zM259.584 195.047619l-47.128381 97.52381h601.453714l-48.786285-97.52381H259.584z" p-id="8505"></path></svg>