<?xml version="1.0" standalone="no"?><!DOCTYPE svg PUBLIC "-//W3C//DTD SVG 1.1//EN" "http://www.w3.org/Graphics/SVG/1.1/DTD/svg11.dtd"><svg t="1765246268138" class="icon" viewBox="0 0 1024 1024" version="1.1" xmlns="http://www.w3.org/2000/svg" p-id="23743" xmlns:xlink="http://www.w3.org/1999/xlink" width="200" height="200"><path d="M512.213333 0c282.581333 0 512 229.418667 512 512s-229.418667 512-512 512-512-229.418667-512-512 229.418667-512 512-512zM138.666667 748.330667a441.898667 441.898667 0 0 0 373.546666 205.696c157.056 0 295.125333-82.090667 373.546667-205.696l-373.546667-142.336-373.546666 142.336z m454.954666-283.349334l310.058667 252.373334A439.722667 439.722667 0 0 0 954.24 512c0-237.952-188.458667-432.256-424.106667-441.685333l63.488 394.666666z m-99.328-394.666666C258.645333 79.744 70.186667 274.048 70.186667 512c0 74.112 18.261333 143.957333 50.56 205.354667l310.058666-252.373334 63.488-394.666666z" p-id="23744" fill="currentColor"></path></svg>