<?xml version="1.0" standalone="no"?><!DOCTYPE svg PUBLIC "-//W3C//DTD SVG 1.1//EN" "http://www.w3.org/Graphics/SVG/1.1/DTD/svg11.dtd"><svg t="1765246219760" class="icon" viewBox="0 0 5969 1024" version="1.1" xmlns="http://www.w3.org/2000/svg" p-id="22567" xmlns:xlink="http://www.w3.org/1999/xlink" width="1165.8203125" height="200"><path d="M331.086214 954.786828c0 34.110272-16.00235 52.158035-51.767 52.158036l-193.141145-0.090239c-34.802103 0-52.158035-17.025057-52.158036-51.646682V72.37153c0-34.591546 16.513703-51.947478 52.158036-51.947478h192.72003c34.862262 0 52.158035 16.483624 52.158036 51.947478v882.415298h0.030079zM602.013219 954.786828l-0.06016-117.551097c0-35.313457 17.085216-51.947478 52.218195-51.947478h838.950269c15.22028 0 22.710102-5.504568 26.109097-15.701554 3.098199-9.234439 0.661751-24.304321-18.739594-30.560879-19.491584-6.376876-678.986928-215.821167-707.08128-225.236083-137.554035-46.382751-189.351115-134.034721-189.351114-241.268514 0-135.689099 91.231443-252.067092 303.20242-252.067091H1672.426049c36.005287 0 51.706841 17.325853 51.706842 52.007637l-0.060159 121.311048c0 35.79473-16.513703 51.79708-51.10525 51.79708l-755.78016-0.360955c-16.694181 0-24.875834 4.331463-27.4326 13.776459-2.707164 9.745792-2.105572 23.492172 17.987604 29.68857 25.357107 7.730459 577.648738 182.523044 679.377963 215.490292 156.804982 50.774374 215.670769 123.476779 215.670769 260.008107 0 163.03146-112.287166 240.03525-305.037276 242.682255-72.672326 0.992627-843.191493 0.120318-843.191493 0.120318-36.787357 0.03008-52.54907-14.077255-52.54907-52.188115zM2281.237259 20.454132c34.741944 0 51.887319 16.00235 51.887319 51.526363l0.030079 559.600975c0 92.795582 22.649943 147.540464 149.615957 151.69145 29.387774 1.022707 74.777899 1.50398 113.881385 1.50398 39.073407 0 93.276856-0.481274 122.63455-1.50398 126.966014-4.150986 140.862791-58.895867 140.892871-151.69145l0.060159-559.600975c0-35.04274 15.130041-51.676762 52.007638-51.676761l195.78815 0.150398c35.82481 0 51.526364 16.904738 51.526364 51.947478v606.224363c0 162.760744-27.071645 322.152572-337.162295 327.416503-106.602121 1.804776-225.717357 2.977881-225.717357 2.977881s-126.725377-1.744617-233.357578-2.977881c-292.58432-3.519314-327.747378-171.694387-327.747378-327.416503l-0.150398-606.645478c0-34.621626 15.611315-51.526364 51.315807-51.526363h194.494727zM5074.098522 20.454132c34.711864 0 51.82716 16.00235 51.82716 51.526363l0.03008 559.600975c0 92.795582 22.649943 147.540464 149.615956 151.69145 29.387774 1.022707 74.777899 1.50398 113.881385 1.50398s93.306935-0.481274 122.66463-1.50398c126.935934-4.150986 140.832712-58.895867 140.832712-151.69145l0.120318-559.600975c0-35.04274 15.130041-51.676762 51.977558-51.676761l195.81823 0.150398c35.854889 0 51.526364 16.904738 51.526364 51.947478l-0.03008 606.224363c0 162.760744-27.011485 322.152572-337.162295 327.416503-106.602121 1.804776-225.717357 2.977881-225.717357 2.977881s-126.725377-1.744617-233.327498-2.977881c-292.614399-3.519314-327.777458-171.694387-327.777457-327.416503l-0.150398-606.645478c0-34.621626 15.611315-51.526364 51.375965-51.526363h194.494727zM4592.704521 954.756749c0 38.140939-15.731634 52.218195-52.518991 52.218194 0 0-770.519167 0.872309-843.191493-0.120318-192.75011-2.647005-305.067356-79.650795-305.067356-242.682255 0-136.501248 58.865787-209.233734 215.670769-260.008107 101.729225-32.967247 654.050936-207.759833 679.347884-215.490292 20.123256-6.196399 20.694768-19.942778 18.017683-29.68857-2.556766-9.444996-10.708339-13.776459-27.40252-13.776459l-755.78016 0.360955c-34.621626 0-51.105249-15.97227-51.10525-51.79708l-0.090238-121.311048c0-34.681785 15.671474-52.007637 51.706841-52.007637h765.164997c212.001057 0 303.2325 116.377993 303.2325 252.067091 0 107.233793-51.82716 194.885762-189.381194 241.268514-28.064272 9.414916-687.559616 218.859207-707.0512 225.236083-19.431425 6.256558-21.867873 21.32644-18.769674 30.560879 3.429075 10.227066 10.918897 15.701554 26.109098 15.701554h838.980348c35.07282 0 52.218195 16.634022 52.218195 51.947478l-0.090239 117.521018z" fill="currentColor" p-id="22568"></path></svg>